<?xml version="1.0" encoding="UTF-8"?>
<!DOCTYPE svg PUBLIC "-//W3C//DTD SVG 1.1//EN" "http://www.w3.org/Graphics/SVG/1.1/DTD/svg11.dtd">
<svg version="1.2" width="215.9mm" height="279.4mm" viewBox="0 0 21590 27940" preserveAspectRatio="xMidYMid" fill-rule="evenodd" clip-path="url(#presentation_clip_path)" stroke-width="28.222" stroke-linejoin="round" xmlns="http://www.w3.org/2000/svg" xmlns:ooo="http://xml.openoffice.org/svg/export" xmlns:xlink="http://www.w3.org/1999/xlink" xml:space="preserve">
 <defs class="ClipPathGroup">
  <clipPath id="presentation_clip_path" clipPathUnits="userSpaceOnUse">
   <rect x="0" y="0" width="21590" height="27940"/>
  </clipPath>
 </defs>
 <defs class="TextShapeIndex">
  <g ooo:slide="id1" ooo:id-list="id3 id4 id5 id6 id7 id8 id9 id10 id11 id12 id13 id14 id15 id16 id17"/>
 </defs>
 <defs class="EmbeddedBulletChars">
  <g id="bullet-char-template(57356)" transform="scale(0.00048828125,-0.00048828125)">
   <path d="M 580,1141 L 1163,571 580,0 -4,571 580,1141 Z"/>
  </g>
  <g id="bullet-char-template(57354)" transform="scale(0.00048828125,-0.00048828125)">
   <path d="M 8,1128 L 1137,1128 1137,0 8,0 8,1128 Z"/>
  </g>
  <g id="bullet-char-template(10146)" transform="scale(0.00048828125,-0.00048828125)">
   <path d="M 174,0 L 602,739 174,1481 1456,739 174,0 Z M 1358,739 L 309,1346 659,739 1358,739 Z"/>
  </g>
  <g id="bullet-char-template(10132)" transform="scale(0.00048828125,-0.00048828125)">
   <path d="M 2015,739 L 1276,0 717,0 1260,543 174,543 174,936 1260,936 717,1481 1274,1481 2015,739 Z"/>
  </g>
  <g id="bullet-char-template(10007)" transform="scale(0.00048828125,-0.00048828125)">
   <path d="M 0,-2 C -7,14 -16,27 -25,37 L 356,567 C 262,823 215,952 215,954 215,979 228,992 255,992 264,992 276,990 289,987 310,991 331,999 354,1012 L 381,999 492,748 772,1049 836,1024 860,1049 C 881,1039 901,1025 922,1006 886,937 835,863 770,784 769,783 710,716 594,584 L 774,223 C 774,196 753,168 711,139 L 727,119 C 717,90 699,76 672,76 641,76 570,178 457,381 L 164,-76 C 142,-110 111,-127 72,-127 30,-127 9,-110 8,-76 1,-67 -2,-52 -2,-32 -2,-23 -1,-13 0,-2 Z"/>
  </g>
  <g id="bullet-char-template(10004)" transform="scale(0.00048828125,-0.00048828125)">
   <path d="M 285,-33 C 182,-33 111,30 74,156 52,228 41,333 41,471 41,549 55,616 82,672 116,743 169,778 240,778 293,778 328,747 346,684 L 369,508 C 377,444 397,411 428,410 L 1163,1116 C 1174,1127 1196,1133 1229,1133 1271,1133 1292,1118 1292,1087 L 1292,965 C 1292,929 1282,901 1262,881 L 442,47 C 390,-6 338,-33 285,-33 Z"/>
  </g>
  <g id="bullet-char-template(9679)" transform="scale(0.00048828125,-0.00048828125)">
   <path d="M 813,0 C 632,0 489,54 383,161 276,268 223,411 223,592 223,773 276,916 383,1023 489,1130 632,1184 813,1184 992,1184 1136,1130 1245,1023 1353,916 1407,772 1407,592 1407,412 1353,268 1245,161 1136,54 992,0 813,0 Z"/>
  </g>
  <g id="bullet-char-template(8226)" transform="scale(0.00048828125,-0.00048828125)">
   <path d="M 346,457 C 273,457 209,483 155,535 101,586 74,649 74,723 74,796 101,859 155,911 209,963 273,989 346,989 419,989 480,963 531,910 582,859 608,796 608,723 608,648 583,586 532,535 482,483 420,457 346,457 Z"/>
  </g>
  <g id="bullet-char-template(8211)" transform="scale(0.00048828125,-0.00048828125)">
   <path d="M -4,459 L 1135,459 1135,606 -4,606 -4,459 Z"/>
  </g>
 </defs>
 <defs class="TextEmbeddedBitmaps"/>
 <g>
  <g id="id2" class="Master_Slide">
   <g id="bg-id2" class="Background"/>
   <g id="bo-id2" class="BackgroundObjects"/>
  </g>
 </g>
 <g class="SlideGroup">
  <g>
   <g id="id1" class="Slide" clip-path="url(#presentation_clip_path)">
    <g class="Page">
     <g class="com.sun.star.drawing.CustomShape">
      <g id="id3">
       <path fill="rgb(114,159,207)" stroke="none" d="M 3094,13699 C 3706,13699 4174,14166 4174,14778 4174,15390 3706,15858 3094,15858 2482,15858 2015,15390 2015,14778 2015,14166 2482,13699 3094,13699 Z M 2015,13699 L 2015,13699 Z M 4175,15859 L 4175,15859 Z"/>
       <path fill="none" stroke="rgb(52,101,175)" d="M 3094,13699 C 3706,13699 4174,14166 4174,14778 4174,15390 3706,15858 3094,15858 2482,15858 2015,15390 2015,14778 2015,14166 2482,13699 3094,13699 Z"/>
       <path fill="none" stroke="rgb(52,101,175)" d="M 2015,13699 L 2015,13699 Z"/>
       <path fill="none" stroke="rgb(52,101,175)" d="M 4175,15859 L 4175,15859 Z"/>
       <text class="TextShape"><tspan class="TextParagraph" font-family="Arial, sans-serif" font-size="635px" font-weight="400"><tspan class="TextPosition" x="2423" y="14995"><tspan fill="rgb(0,0,0)" stroke="none">Start</tspan></tspan></tspan></text>
      </g>
     </g>
     <g class="com.sun.star.drawing.CustomShape">
      <g id="id4">
       <path fill="rgb(114,159,207)" stroke="none" d="M 19223,13699 C 19835,13699 20303,14166 20303,14778 20303,15390 19835,15858 19223,15858 18611,15858 18144,15390 18144,14778 18144,14166 18611,13699 19223,13699 Z M 18144,13699 L 18144,13699 Z M 20304,15859 L 20304,15859 Z"/>
       <path fill="none" stroke="rgb(52,101,175)" d="M 19223,13699 C 19835,13699 20303,14166 20303,14778 20303,15390 19835,15858 19223,15858 18611,15858 18144,15390 18144,14778 18144,14166 18611,13699 19223,13699 Z"/>
       <path fill="none" stroke="rgb(52,101,175)" d="M 18144,13699 L 18144,13699 Z"/>
       <path fill="none" stroke="rgb(52,101,175)" d="M 20304,15859 L 20304,15859 Z"/>
       <text class="TextShape"><tspan class="TextParagraph" font-family="Arial, sans-serif" font-size="635px" font-weight="400"><tspan class="TextPosition" x="18379" y="14995"><tspan fill="rgb(0,0,0)" stroke="none">Finish</tspan></tspan></tspan></text>
      </g>
     </g>
     <g class="com.sun.star.drawing.CustomShape">
      <g id="id5">
       <path fill="rgb(114,159,207)" stroke="none" d="M 6396,13953 C 6864,13953 7222,14310 7222,14778 7222,15246 6864,15604 6396,15604 5928,15604 5571,15246 5571,14778 5571,14310 5928,13953 6396,13953 Z M 5571,13953 L 5571,13953 Z M 7223,15605 L 7223,15605 Z"/>
       <path fill="none" stroke="rgb(52,101,175)" d="M 6396,13953 C 6864,13953 7222,14310 7222,14778 7222,15246 6864,15604 6396,15604 5928,15604 5571,15246 5571,14778 5571,14310 5928,13953 6396,13953 Z"/>
       <path fill="none" stroke="rgb(52,101,175)" d="M 5571,13953 L 5571,13953 Z"/>
       <path fill="none" stroke="rgb(52,101,175)" d="M 7223,15605 L 7223,15605 Z"/>
       <text class="TextShape"><tspan class="TextParagraph" font-family="Arial, sans-serif" font-size="635px" font-weight="400"><tspan class="TextPosition" x="5992" y="14995"><tspan fill="rgb(0,0,0)" stroke="none">R1</tspan></tspan></tspan></text>
      </g>
     </g>
     <g class="com.sun.star.drawing.CustomShape">
      <g id="id6">
       <path fill="rgb(114,159,207)" stroke="none" d="M 9190,13953 C 9658,13953 10016,14310 10016,14778 10016,15246 9658,15604 9190,15604 8722,15604 8365,15246 8365,14778 8365,14310 8722,13953 9190,13953 Z M 8365,13953 L 8365,13953 Z M 10017,15605 L 10017,15605 Z"/>
       <path fill="none" stroke="rgb(52,101,175)" d="M 9190,13953 C 9658,13953 10016,14310 10016,14778 10016,15246 9658,15604 9190,15604 8722,15604 8365,15246 8365,14778 8365,14310 8722,13953 9190,13953 Z"/>
       <path fill="none" stroke="rgb(52,101,175)" d="M 8365,13953 L 8365,13953 Z"/>
       <path fill="none" stroke="rgb(52,101,175)" d="M 10017,15605 L 10017,15605 Z"/>
       <text class="TextShape"><tspan class="TextParagraph" font-family="Arial, sans-serif" font-size="635px" font-weight="400"><tspan class="TextPosition" x="8786" y="14995"><tspan fill="rgb(0,0,0)" stroke="none">R2</tspan></tspan></tspan></text>
      </g>
     </g>
     <g class="com.sun.star.drawing.CustomShape">
      <g id="id7">
       <path fill="rgb(114,159,207)" stroke="none" d="M 11984,13953 C 12452,13953 12810,14310 12810,14778 12810,15246 12452,15604 11984,15604 11516,15604 11159,15246 11159,14778 11159,14310 11516,13953 11984,13953 Z M 11159,13953 L 11159,13953 Z M 12811,15605 L 12811,15605 Z"/>
       <path fill="none" stroke="rgb(52,101,175)" d="M 11984,13953 C 12452,13953 12810,14310 12810,14778 12810,15246 12452,15604 11984,15604 11516,15604 11159,15246 11159,14778 11159,14310 11516,13953 11984,13953 Z"/>
       <path fill="none" stroke="rgb(52,101,175)" d="M 11159,13953 L 11159,13953 Z"/>
       <path fill="none" stroke="rgb(52,101,175)" d="M 12811,15605 L 12811,15605 Z"/>
       <text class="TextShape"><tspan class="TextParagraph" font-family="Arial, sans-serif" font-size="635px" font-weight="400"><tspan class="TextPosition" x="11580" y="14995"><tspan fill="rgb(0,0,0)" stroke="none">R3</tspan></tspan></tspan></text>
      </g>
     </g>
     <g class="com.sun.star.drawing.CustomShape">
      <g id="id8">
       <path fill="rgb(114,159,207)" stroke="none" d="M 16175,13953 C 16643,13953 17001,14310 17001,14778 17001,15246 16643,15604 16175,15604 15707,15604 15350,15246 15350,14778 15350,14310 15707,13953 16175,13953 Z M 15350,13953 L 15350,13953 Z M 17002,15605 L 17002,15605 Z"/>
       <path fill="none" stroke="rgb(52,101,175)" d="M 16175,13953 C 16643,13953 17001,14310 17001,14778 17001,15246 16643,15604 16175,15604 15707,15604 15350,15246 15350,14778 15350,14310 15707,13953 16175,13953 Z"/>
       <path fill="none" stroke="rgb(52,101,175)" d="M 15350,13953 L 15350,13953 Z"/>
       <path fill="none" stroke="rgb(52,101,175)" d="M 17002,15605 L 17002,15605 Z"/>
       <text class="TextShape"><tspan class="TextParagraph" font-family="Arial, sans-serif" font-size="635px" font-weight="400"><tspan class="TextPosition" x="15771" y="14995"><tspan fill="rgb(0,0,0)" stroke="none">Rn</tspan></tspan></tspan></text>
      </g>
     </g>
     <g class="com.sun.star.drawing.ConnectorShape">
      <g id="id9">
       <path fill="none" stroke="rgb(0,0,0)" d="M 4175,14780 L 5142,14780"/>
       <path fill="rgb(0,0,0)" stroke="none" d="M 5572,14780 L 5122,14630 5122,14930 5572,14780 Z"/>
      </g>
     </g>
     <g class="com.sun.star.drawing.ConnectorShape">
      <g id="id10">
       <path fill="none" stroke="rgb(0,0,0)" d="M 7223,14780 L 7936,14780"/>
       <path fill="rgb(0,0,0)" stroke="none" d="M 8366,14780 L 7916,14630 7916,14930 8366,14780 Z"/>
      </g>
     </g>
     <g class="com.sun.star.drawing.ConnectorShape">
      <g id="id11">
       <path fill="none" stroke="rgb(0,0,0)" d="M 10017,14780 L 10730,14780"/>
       <path fill="rgb(0,0,0)" stroke="none" d="M 11160,14780 L 10710,14630 10710,14930 11160,14780 Z"/>
      </g>
     </g>
     <g class="com.sun.star.drawing.ConnectorShape">
      <g id="id12">
       <path fill="none" stroke="rgb(0,0,0)" d="M 17002,14780 L 17715,14780"/>
       <path fill="rgb(0,0,0)" stroke="none" d="M 18145,14780 L 17695,14630 17695,14930 18145,14780 Z"/>
      </g>
     </g>
     <g class="com.sun.star.drawing.ConnectorShape">
      <g id="id13">
       <path fill="none" stroke="rgb(0,0,0)" d="M 6398,13954 C 6398,13201 4680,13310 3938,13504"/>
       <path fill="rgb(0,0,0)" stroke="none" d="M 3604,13715 L 4066,13608 3910,13352 3604,13715 Z"/>
      </g>
     </g>
     <g class="com.sun.star.drawing.ConnectorShape">
      <g id="id14">
       <path fill="none" stroke="rgb(0,0,0)" d="M 9192,13954 C 9192,12331 4292,12450 3278,13351"/>
       <path fill="rgb(0,0,0)" stroke="none" d="M 3096,13700 L 3442,13376 3178,13233 3096,13700 Z"/>
      </g>
     </g>
     <g class="com.sun.star.drawing.ConnectorShape">
      <g id="id15">
       <path fill="none" stroke="rgb(0,0,0)" d="M 11986,13954 C 11986,10617 3464,10739 2701,13321"/>
       <path fill="rgb(0,0,0)" stroke="none" d="M 2646,13701 L 2862,13278 2565,13234 2646,13701 Z"/>
      </g>
     </g>
     <g class="com.sun.star.drawing.ConnectorShape">
      <g id="id16">
       <path fill="none" stroke="rgb(0,0,0)" d="M 16177,13925 C 16177,8457 2946,8417 2353,13647"/>
       <path fill="rgb(0,0,0)" stroke="none" d="M 2332,14016 L 2508,13576 2209,13558 2332,14016 Z"/>
      </g>
     </g>
     <g class="com.sun.star.drawing.TextShape">
      <g id="id17">
       <text class="TextShape"><tspan class="TextParagraph" font-family="Arial, sans-serif" font-size="988px" font-weight="400"><tspan class="TextPosition" x="13696" y="14886"><tspan fill="rgb(0,0,0)" stroke="none">...</tspan></tspan></tspan></text>
      </g>
     </g>
    </g>
   </g>
  </g>
 </g>
</svg>